#tb 0: 1/1000
0,          0,          0,        0,     3168, 013cd22aea6bfeccc8ec809abd52be5c
0,         33,         33,        0,     3168, 0980adfb0ef879b3c960797272f025ad
0,         66,         66,        0,     3168, d1411ffa0429befb8c71d3ab45acee92
0,        100,        100,        0,     3168, 6c6f825379eaf21709a45be77def7a63
0,        133,        133,        0,     3168, bab632ef00a080739a41c692f2b21c3a
0,        166,        166,        0,     3168, fc0f6045aca252f2e904730227b8f337
0,        200,        200,        0,     3168, c8dbea209329463bfd9238a11b8d5b17
0,        233,        233,        0,     3168, 457247bf4186ed8459e0a1564f0e68f2
0,        266,        266,        0,     3168, baa55e20bd7c73960b080d8a0c8db4d5
0,        300,        300,        0,     3168, dc8933e8edc98cd0cfca44ae22997c62
